<svg baseProfile="basic" xmlns="http://www.w3.org/2000/svg" width="841.89" height="369" viewBox="0 0 841.89 369"><style type="text/css"><![CDATA[
	.st0{fill:#F3B014;}
	.st1{fill:#29235C;}
]]></style><path class="st1" d="M111.882 118.168c2.791 1.502 4.724 3.219 5.797 5.151 1.074 1.933 2.578 3.545 4.511 4.832 1.933 1.292 3.327 2.688 4.188 4.19.858 1.507 2.037 4.726 3.544 9.663 1.502 4.941 2.361 11.6 2.576 19.976.216 8.376.536 14.604.967 18.685.428 4.08 1.182 8.591 2.255 13.527 1.071 4.941 2.899 12.352 5.478 22.229 2.575 9.882 4.937 16.861 7.087 20.941 2.147 4.081 4.4 8.051 6.764 11.921 2.362 3.865 4.726 6.013 7.089 6.443 2.36.426 5.044-1.076 8.053-4.511 3.004-3.439 5.478-8.912 7.41-16.432 1.933-7.515 5.582-17.934 10.951-31.25 5.37-13.313 9.558-25.071 12.564-35.274 3.006-10.198 7.089-18.469 12.243-24.807 5.154-6.333 9.607-10.792 13.367-13.37 3.758-2.574 7.515-3.917 11.274-4.023s6.389 0 7.894.32c1.504.321 2.578 1.344 3.222 3.062.646 1.717.107 3.33-1.61 4.832-1.72 1.507-4.726 4.941-9.019 10.308-4.299 5.372-8.807 12.026-13.533 19.976-4.726 7.945-8.053 14.494-9.985 19.65-1.933 5.152-5.372 15.57-10.309 31.246-4.941 15.681-8.053 24.487-9.342 26.419-1.289 1.933-2.686 5.367-4.188 10.309-1.505 4.941-4.188 10.203-8.054 15.786-3.867 5.582-7.089 8.696-9.665 9.342-2.578.641-6.551.431-11.92-.646-5.37-1.071-9.127-2.148-11.275-3.22-2.149-1.076-4.082-2.363-5.797-3.87-1.72-1.502-3.976-4.075-6.767-7.729-2.793-3.65-5.798-9.988-9.02-19.005-3.222-9.021-5.584-16.001-7.086-20.942-1.507-4.937-2.901-10.844-4.188-17.718-1.289-6.869-2.473-14.819-3.545-23.841-1.073-9.017-2.47-12.987-4.188-11.916-1.72 1.072-3.222 2.469-4.511 4.186-1.287 1.722-4.296 6.554-9.02 14.499-4.726 7.945-9.019 16.321-12.887 25.128-3.865 8.806-7.517 17.823-10.951 27.06-3.439 9.237-6.176 15.197-8.216 17.881s-4.296 3.54-6.764 2.573c-2.474-.966-4.243-2.521-5.317-4.668-1.073-2.148-1.609-4.832-1.609-8.056 0-3.22 2.146-10.198 6.443-20.938 4.293-10.739 8.266-20.621 11.918-29.639 3.649-9.021 6.12-14.499 7.409-16.431 1.289-1.932 3.007-6.333 5.154-13.207 2.148-6.869 5.154-14.819 9.021-23.841 3.865-9.017 6.765-15.245 8.697-18.684 1.932-3.435 3.891-5.688 5.879-6.764 1.991-1.07 4.325-.855 7.011.647zm124.641 80.697c2.037-1.933 4.534-3.167 7.488-3.707 2.954-.536 5.396-.373 7.331.482 1.933.861 3.568 2.393 4.912 4.593 1.342 2.2 4.695 3.248 10.067 3.143 5.367-.105 12.052-.081 20.052.081 7.998.158 6.308.402-5.072.723-11.385.32-17.854.779-19.409 1.368-1.56.593-2.203 2.497-1.933 5.721.266 3.22.483 6.63.644 10.228.16 3.597.187 7.596.081 12.002-.11 4.4-.431 7.677-.966 9.825-.541 2.147-1.345 4.4-2.419 6.764-1.073 2.363-2.656 4.859-4.75 7.491-2.095 2.631-4.671 5.07-7.732 7.328-3.059 2.253-5.879 3.946-8.457 5.075-2.575 1.124-5.369 1.182-8.373.157-3.009-1.019-5.453-2.631-7.331-4.831-1.88-2.2-3.382-4.482-4.508-6.845-1.129-2.363-1.612-6.496-1.45-12.404.161-5.902.804-10.657 1.933-14.255 1.127-3.597 2.87-7.352 5.233-11.274 2.36-3.917 3.062-5.745 2.095-5.477-.966.268-1.207.134-.725-.402.483-.535 2.335-2.846 5.557-6.926 3.221-4.081 5.799-7.033 7.732-8.86zm8.053 25.29c-2.363-2.903-5.314-2.095-8.859 2.416-3.542 4.511-5.666 9.289-6.361 14.336-.701 5.047-.431 8.591.806 10.629 1.231 2.043 2.521 3.219 3.865 3.545 1.342.32 3.245-.564 5.719-2.66 2.468-2.095 4.482-6.63 6.039-13.608 1.555-6.98 1.151-11.864-1.209-14.658zm60.53-31.57c4.296-2.148 8.591-3.545 12.887-4.191 4.293-.646 6.897.163 7.812 2.416.911 2.258.483 4.458-1.287 6.606-1.772 2.147-4.188 3.357-7.249 3.621-3.062.272-6.362 2.473-9.906 6.605-3.543 4.138-5.585 9.021-6.121 14.657-.538 5.64-.401 9.533.402 11.681.806 2.148 1.693 6.334 2.659 12.562.967 6.229.32 11.571-1.933 16.029-2.255 4.454-4.671 7.706-7.249 9.744-2.578 2.043-5.773 3.545-9.584 4.511-3.813.967-7.063 1.449-9.744 1.449-2.686 0-5.558-.646-8.617-1.932-3.062-1.292-4.938-3.947-5.64-7.975-.696-4.027 4.941-11.49 16.914-22.392 11.971-10.896 12.911-11.217 2.817-.966-10.093 10.256-14.037 16.617-11.839 19.091 2.2 2.468 4.834 3.114 7.893 1.933 3.062-1.182 5.478-2.765 7.25-4.755 1.771-1.985 3.085-4.401 3.946-7.247.858-2.847 1.231-5.478 1.126-7.893-.107-2.416-.939-7.783-2.497-16.106-1.557-8.323-1.557-14.58 0-18.766 1.558-4.19 3.868-7.812 6.927-10.873 3.061-3.059 6.737-5.662 11.033-7.809zm49.903 0c4.296-2.148 8.592-3.545 12.887-4.191 4.294-.646 6.898.163 7.812 2.416.911 2.258.483 4.458-1.286 6.606-1.772 2.147-4.188 3.357-7.25 3.621-3.062.272-6.361 2.473-9.906 6.605-3.542 4.138-5.585 9.021-6.12 14.657-.538 5.64-.402 9.533.401 11.681.806 2.148 1.693 6.334 2.659 12.562.967 6.229.321 11.571-1.932 16.029-2.256 4.454-4.672 7.706-7.25 9.744-2.578 2.043-5.773 3.545-9.584 4.511-3.812.967-7.063 1.449-9.743 1.449-2.687 0-5.559-.646-8.618-1.932-3.061-1.292-4.938-3.947-5.64-7.975-.695-4.027 4.941-11.49 16.915-22.392 11.971-10.896 12.91-11.217 2.817-.966-10.094 10.256-14.037 16.617-11.84 19.091 2.201 2.468 4.834 3.114 7.894 1.933 3.062-1.182 5.477-2.765 7.249-4.755 1.772-1.985 3.085-4.401 3.946-7.247.858-2.847 1.231-5.478 1.127-7.893-.108-2.416-.94-7.783-2.497-16.106-1.558-8.323-1.558-14.58 0-18.766 1.557-4.19 3.867-7.812 6.927-10.873 3.061-3.059 6.737-5.662 11.032-7.809zm70.682-1.129c2.468-.646 5.181-.751 8.134-.32 2.951.43 5.314 1.344 7.087 2.736 1.772 1.396 3.463 4.133 5.075 8.214 1.609 4.085.885 6.82-2.177 8.218-3.059 1.396-5.826.913-8.294-1.449-2.471-2.363-5.049-2.847-7.732-1.45-2.684 1.397-5.341 2.818-7.972 4.268-2.634 1.449-5.879 3.73-9.746 6.845-3.866 3.114-7.839 7.089-11.919 11.921-4.083 4.831-6.338 7.921-6.766 9.261-.431 1.344.616 1.157 3.143-.564 2.521-1.718 6.386-4.319 11.598-7.812 5.207-3.487 11.758-7.061 19.65-10.71 7.893-3.65 12.885-5.076 14.979-4.272 2.093.809 3.892 2.287 5.396 4.43 1.502 2.152 2.361 4.004 2.576 5.559.215 1.56-.026 2.794-.725 3.707-.698.914-1.505 2.98-2.416 6.199-.913 3.225-.832 6.339.242 9.343 1.071 3.009 2.441 5.075 4.108 6.204 1.662 1.124 3.944 1.449 6.846.966 2.898-.483 6.467-2.684 10.71-6.605 4.24-3.918 4.052-3.004-.564 2.736-4.616 5.749-8.269 9.399-10.952 10.954-2.686 1.559-4.778 2.31-6.28 2.258-1.507-.053-3.463-.536-5.882-1.45-2.415-.913-4.697-2.339-6.845-4.271s-3.841-4.29-5.073-7.084c-1.236-2.794-2.068-4.86-2.497-6.204-.43-1.34-1.425-2.817-2.979-4.43-1.558-1.612-3.463-1.956-5.719-1.048-2.256.914-6.202 3.411-11.839 7.491-5.638 4.08-10.899 7.438-15.784 10.069-4.889 2.631-9.263 4.453-13.128 5.477-3.865 1.02-6.362 1.368-7.491 1.043-1.126-.32-2.362-1.525-3.704-3.621-1.342-2.095-2.119-4.377-2.335-6.845-.215-2.469.137-4.966 1.048-7.491.914-2.521 4.349-7.572 10.309-15.14 5.958-7.572 11.703-13.771 17.234-18.607 5.53-4.832 11.409-8.94 17.638-12.322 6.225-3.387 10.575-5.453 13.046-6.204z"/><path class="st0" d="M509.746 106.327c2.785-3.313 5.497-4.952 8.139-4.918 2.64.034 4.602.811 5.894 2.337 1.286 1.527 2.191 3.35 2.716 5.466.521 2.117.556 4.186.105 6.207-.455 2.026-1.309 4.852-2.566 8.491-1.258 3.64-1.256 6.008.004 7.106 1.26 1.098 2.86 1.285 4.802.557 1.94-.723 4.989-1.393 9.146-2 4.155-.612 8.333-.112 12.534 1.478 4.2 1.596 8.115 4.529 11.746 8.801 3.628 4.267 5.918 9.389 6.867 15.351.946 5.962.946 11.049-.001 15.257-.948 4.208-3.017 8.574-6.203 13.099s-4.58 6.989-4.174 7.393c.404.404 2.159 1.275 5.269 2.625 3.104 1.345 6.224 3.662 9.356 6.942 3.132 3.284 4.836 6.558 5.116 9.822.277 3.266.216 7.087-.18 11.472-.4 4.392-3.363 10.22-8.891 17.484-5.527 7.271-12.794 13.505-21.802 18.693-9.007 5.198-15.178 8.61-18.509 10.234-3.333 1.629-7.155 3.187-11.465 4.663-4.314 1.485-7.662 2.09-10.047 1.822-2.387-.263-4.518-.711-6.39-1.335-1.875-.624-3.044-1.622-3.515-2.99-.472-1.362-.112-3.166 1.082-5.401 1.191-2.234 3.441-3.947 6.749-5.144 3.309-1.196 8.334-3.239 15.078-6.124 6.745-2.886 13.183-6.286 19.319-10.209 6.134-3.917 11.74-8.503 16.813-13.752 5.074-5.244 7.052-10.17 5.927-14.777-1.124-4.603-4.43-7.28-9.916-8.035-5.489-.754-13.152 1.255-22.997 6.021-9.844 4.771-16.114 7.888-18.811 9.368-2.698 1.476-4.853 1.46-6.461-.04-1.611-1.505-2.958-1.518-4.041-.048-1.083 1.475-2.424 5.47-4.019 11.984-1.597 6.517-3.46 14.661-5.586 24.44-2.128 9.778-3.944 17.384-5.452 22.819-1.512 5.431-3.546 8.716-6.104 9.86s-4.366 1.46-5.423.938c-1.06-.517-1.746-1.544-2.07-3.084-.319-1.537-.615-3.885-.888-7.045-.27-3.156.806-10.226 3.224-21.209 2.419-10.983 5.17-23.039 8.249-36.168s7.6-32.706 13.561-58.734 9.055-41.656 9.286-46.898c.232-5.231 1.742-9.506 4.529-12.819zm37.738 41.641c-3.256-1.929-7.059-2.875-11.418-2.844-4.356.031-8.738.869-13.146 2.515-4.406 1.65-8.304 9.532-11.693 23.651-3.388 14.119-5.328 23.108-5.815 26.958-.488 3.855 2.871 4.972 10.08 3.345 7.205-1.627 13.123-4.024 17.75-7.195 4.625-3.166 8.385-6.359 11.287-9.574 2.901-3.211 4.96-6.152 6.176-8.821 1.215-2.668 2.21-5.805 2.985-9.406.773-3.606.747-7.128-.082-10.572-.829-3.439-2.869-6.123-6.124-8.057zm243.022-13.977c-1.709-4.388-7.202-7.437-12.676-6.792l-49.521 5.697c-5.867.687-9.621 5.224-8.366 10.139.944 3.802 4.564 6.746 8.876 7.584 1.272.248 2.588.296 3.961.138l18.805-2.168c-13.851 10.719-28.712 19.606-43.572 26.995.325-1.551.401-2.719-.369.186l-.327.164c1.799-10.578 12.495-58.45 13.087-63.161.661-5.267 1.854-12.56 3.582-21.885 1.726-9.32 2.427-14.776 2.104-16.371-.327-1.593-.744-3.363-1.255-5.322-.511-1.955-1.69-3.461-3.54-4.518-1.847-1.057-3.484-1.75-4.904-2.084-1.424-.333-2.2.123-2.328 1.369-.132 1.25-2.126 10.186-5.988 26.812-3.86 16.625-18.398 80.41-19.688 85.125-1.291 4.721-2.52 7.6-3.685 8.649-1.167 1.049-5.53 2.941-13.091 5.662-7.563 2.73-13.907 4.783-19.034 6.157-5.127 1.373-8.962 2.337-11.506 2.886-2.546.555-4.938 1.366-7.179 2.431-2.242 1.07-2.493-1.008-.752-6.243 1.676-5.045 5.142-16.093 10.399-33.147l.591-1.916s-.476-5.646-6.189-8.095c-5.715-2.449-10.57 2.708-10.57 2.708-4.12 13.685-6.905 22.861-8.357 27.536-1.455 4.679-2.951 9.165-4.482 13.47-1.536 4.301-3.139 7.211-4.811 8.727-1.67 1.515-5.993 2.796-10.066 4.464h-.001c-3.308.478-5.238.689-5.379.701-4.075.421-7.107 2.717-8.237 5.731l-.001.001c-.5 1.335-.665 2.797-.318 4.322.92 3.88 4.565 6.859 8.945 7.711 1.214.235 2.908.388 4.215.264.42-.041 1.694-.182 3.656-.441 1.819 2.152 2.043 7.109.744 11.512-1.57 5.33-4.543 16.917-8.911 34.762-1.256 5.128-12.213 36.925 3.736 32.308 4.477-1.296 6.092-7.225 7.075-11.253 1.175-4.819 3.944-15.798 8.31-32.947 4.364-17.144 7.393-27.872 9.088-32.188.972-2.469 3.23-4.789 6.69-6.972 14.534-3.152 33.183-8.047 53.59-15.444.019.224.081.416.063.669-.305 4.222-.881 9.157-1.728 14.811-.85 5.658-1.504 11.002-1.965 16.039-.462 5.038-.993 8.68-1.589 10.927-.601 2.252-1.504 7.909-2.709 16.978-1.208 9.073-.09 10.823 3.349 5.26 3.437-5.563 5.981-10.85 7.629-15.863 1.646-5.009 4.422-14.349 8.324-28.018 3.905-13.67 6.405-22.669 7.508-26.998.131-.516.276-.923.415-1.389 19.186-8.142 39.188-18.502 58.269-31.7l-1.604 8.249c-.944 4.854 4.675 10.049 10.588 11.199 5.892 1.146 13.053-1.566 13.996-6.419l7.966-40.977.01-.051c.378-1.954.085-4.057-.873-5.981z"/></svg>